<svg id="Grupo_4" data-name="Grupo 4" xmlns="http://www.w3.org/2000/svg" width="55.529" height="57.538" viewBox="0 0 55.529 57.538">
  <g id="Grupo_3" data-name="Grupo 3">
    <g id="Grupo_2" data-name="Grupo 2" transform="translate(0.76)">
      <g id="Grupo_1" data-name="Grupo 1" transform="translate(0)">
        <path id="Caminho_4" data-name="Caminho 4" d="M185.422-292.651a66.9,66.9,0,0,0-5.154-6.541,29.2,29.2,0,0,0-3.88-3.657A12.391,12.391,0,0,0,168-305.591s-6.211.743-8.145,6.4c-.723,2.115-.9,1.742-1.316,7.569a28.16,28.16,0,0,0,1.728,8.655,45.22,45.22,0,0,0,8.885,12.768c5.533,5.206,13.492,8.569,13.492,8.569v-10.626h-6.253v-2.057h8.063v13.283a1.206,1.206,0,0,0,.552.227.608.608,0,0,0,.419-.227v-13.283h8.407v2.057h-6.253v10.626a50.816,50.816,0,0,0,13.575-9.084,40.248,40.248,0,0,0,5.924-7.027,27.825,27.825,0,0,0,3.291-6.513,24.433,24.433,0,0,0,1.4-7.37,19.009,19.009,0,0,0-1.4-7.113,9.883,9.883,0,0,0-5.594-6.256s-4.854-2.742-11.353,2.742S185.422-292.651,185.422-292.651Z" transform="translate(-158.535 305.677)" fill="#939393"/>
        <path id="Caminho_5" data-name="Caminho 5" d="M275.816-279.024a11.59,11.59,0,0,0,2.428,3.232,4.2,4.2,0,0,0,2.8.855,7.491,7.491,0,0,1,1.831-.855,1.006,1.006,0,0,1,1.027.271h1.114s-2.785,1.687-2.229,2.412,4.454.49,4.454.49a30.793,30.793,0,0,0,2.495,4.732,27.045,27.045,0,0,0,2.932,3.6.775.775,0,0,1-.144.524.783.783,0,0,1-.534.109,21.764,21.764,0,0,0-5.791-5.224,8.573,8.573,0,0,0-6.22-.906l-3.487,3.795a5.342,5.342,0,0,1-1.156-.67,5.542,5.542,0,0,1-.926-.984l2.567-2.87a6.555,6.555,0,0,0-1.237-2.872,8.039,8.039,0,0,0-2.436-2.241,15.694,15.694,0,0,0-4.858-1.975,12.445,12.445,0,0,0-2.81-.3.939.939,0,0,1-.191-.442.492.492,0,0,1,.191-.339s2.691.265,5.21.265A23.55,23.55,0,0,0,275.816-279.024Z" transform="translate(-238.404 286.773)" fill="none" stroke="#f0f0f0" stroke-width="1"/>
      </g>
    </g>
    <rect id="Retângulo_4" data-name="Retângulo 4" width="55" height="2" transform="translate(0 45.538)" fill="#939393"/>
    <rect id="Retângulo_5" data-name="Retângulo 5" width="55" height="1" transform="translate(0 56.538)" fill="#939393"/>
    <text id="FUNDAÇÃO_GRAÇA" data-name="FUNDAÇÃO GRAÇA" transform="translate(9 53.538)" fill="#939393" font-size="4" font-family="LucidaSansUnicode, Lucida Sans Unicode"><tspan x="0" y="0">FUNDAÇÃO GRAÇA</tspan></text>
  </g>
</svg>
